<svg width="26" height="26" viewBox="0 0 26 26" fill="none" xmlns="http://www.w3.org/2000/svg">
<path fill-rule="evenodd" clip-rule="evenodd" d="M24.1825 0.5L25.4248 22.8613C25.5014 24.2399 24.4459 25.4196 23.0673 25.4962C22.998 25.4994 22.998 25.4994 22.9286 25.5H3.07137C1.69066 25.5 0.571373 24.3807 0.571373 23C0.572015 22.9306 0.572015 22.9306 0.575222 22.8613L1.81752 0.5H24.1825ZM4.18248 3L3.07137 23H22.9286L21.8175 3H4.18248ZM9.25 5.5H6.75V8.625C6.75 11.6259 9.65405 14.25 13 14.25C16.346 14.25 19.25 11.6259 19.25 8.625V5.5H16.75V8.625C16.75 10.1855 15.0186 11.75 13 11.75C10.9814 11.75 9.25 10.1855 9.25 8.625V5.5Z" fill="white"/>
</svg>
